<svg width="32" height="32" viewBox="0 0 32 32" fill="none" xmlns="http://www.w3.org/2000/svg">
<path d="M28.8092 25.6H3.2092C2.79954 25.5958 2.39542 25.5048 2.02349 25.3331C1.65157 25.1613 1.32028 24.9126 1.05149 24.6034C0.746964 24.2544 0.518868 23.8455 0.381874 23.403C0.244881 22.9606 0.202024 22.4943 0.25606 22.0343C1.3532 13.4949 8.11892 7.05829 16.0001 7.05829C23.8812 7.05829 30.6286 13.4583 31.7441 22.0343C31.8045 22.4974 31.7665 22.9681 31.6326 23.4155C31.4987 23.863 31.2719 24.2771 30.9669 24.6309C30.6956 24.935 30.3632 25.1786 29.9914 25.3456C29.6196 25.5126 29.2168 25.5993 28.8092 25.6ZM16.0092 9.31657C9.27092 9.31657 3.48349 14.9029 2.53263 22.2994C2.51328 22.4406 2.52362 22.5843 2.56298 22.7213C2.60234 22.8582 2.66985 22.9855 2.7612 23.0949C2.81411 23.161 2.88075 23.2149 2.95652 23.2528C3.03229 23.2907 3.11539 23.3117 3.20006 23.3143H28.8001C28.8847 23.3117 28.9678 23.2907 29.0436 23.2528C29.1194 23.2149 29.186 23.161 29.2389 23.0949C29.3303 22.9855 29.3978 22.8582 29.4371 22.7213C29.4765 22.5843 29.4868 22.4406 29.4675 22.2994C28.5258 14.9303 22.7383 9.344 16.0001 9.344L16.0092 9.31657Z" fill="white"/>
<path d="M25.0331 11.648C24.8404 11.6496 24.6509 11.599 24.4846 11.5017C24.3526 11.4308 24.2359 11.3345 24.1413 11.2183C24.0468 11.102 23.9762 10.9682 23.9337 10.8245C23.8912 10.6808 23.8776 10.5301 23.8937 10.3812C23.9098 10.2322 23.9552 10.0879 24.0274 9.95658L25.6457 6.96687C25.7912 6.70014 26.0367 6.50213 26.3282 6.41639C26.6197 6.33066 26.9333 6.36424 27.2 6.50973C27.4667 6.65522 27.6647 6.90071 27.7505 7.19219C27.8362 7.48368 27.8026 7.79728 27.6571 8.06401L26.0389 11.0446C25.9406 11.226 25.7955 11.3777 25.6185 11.4839C25.4416 11.59 25.2395 11.6467 25.0331 11.648ZM7.02172 11.648C6.8154 11.6467 6.61323 11.59 6.43632 11.4839C6.2594 11.3777 6.11424 11.226 6.016 11.0446L4.39772 8.06401C4.3171 7.93207 4.2641 7.78514 4.24192 7.63212C4.21974 7.4791 4.22884 7.32317 4.26867 7.17377C4.30851 7.02436 4.37824 6.8846 4.47365 6.76293C4.56907 6.64126 4.68818 6.54022 4.82378 6.46592C4.95938 6.39162 5.10864 6.3456 5.26254 6.33066C5.41643 6.31573 5.57176 6.33217 5.71912 6.379C5.86648 6.42583 6.0028 6.50208 6.11983 6.60313C6.23687 6.70417 6.33218 6.82792 6.4 6.96687L8.01829 9.95658C8.16163 10.2223 8.19401 10.5339 8.10836 10.8234C8.02271 11.1129 7.82598 11.3568 7.56114 11.5017C7.39698 11.5962 7.21114 11.6466 7.02172 11.648ZM9.86514 18.9257C10.2982 18.8941 10.7032 18.6997 10.9988 18.3817C11.2944 18.0637 11.4587 17.6456 11.4587 17.2114C11.4587 16.7773 11.2944 16.3592 10.9988 16.0412C10.7032 15.7231 10.2982 15.5288 9.86514 15.4972C9.43212 15.5288 9.02711 15.7231 8.73149 16.0412C8.43588 16.3592 8.27156 16.7773 8.27156 17.2114C8.27156 17.6456 8.43588 18.0637 8.73149 18.3817C9.02711 18.6997 9.43212 18.8941 9.86514 18.9257ZM21.9886 18.9989C22.4216 18.9672 22.8266 18.7729 23.1222 18.4549C23.4178 18.1369 23.5822 17.7188 23.5822 17.2846C23.5822 16.8504 23.4178 16.4323 23.1222 16.1143C22.8266 15.7963 22.4216 15.6019 21.9886 15.5703C21.5555 15.6019 21.1505 15.7963 20.8549 16.1143C20.5593 16.4323 20.395 16.8504 20.395 17.2846C20.395 17.7188 20.5593 18.1369 20.8549 18.4549C21.1505 18.7729 21.5555 18.9672 21.9886 18.9989Z" fill="white"/>
</svg>
