<svg width="32" height="32" viewBox="0 0 32 32" fill="none" xmlns="http://www.w3.org/2000/svg">
<g clip-path="url(#clip0_9_33)">
<path d="M16 0C7.16522 0 0 7.16522 0 16C0 24.8348 7.16522 32 16 32C24.8348 32 32 24.8348 32 16C32 7.16522 24.8348 0 16 0ZM17.287 29.1478C17.2174 29.1478 17.1478 29.1478 17.0435 29.1826V21.6348C18.8522 21.6 20.487 21.5652 21.9826 21.4609C20.6609 25.5304 18.1913 28.2435 17.287 29.1478ZM14.713 29.1478C13.7739 28.2087 11.3391 25.4957 10.0174 21.4609C11.4783 21.5652 13.1478 21.6348 14.9565 21.6348V29.1826C14.887 29.1826 14.8174 29.1478 14.713 29.1478ZM2.78261 16C2.78261 15.1304 2.88696 14.2609 3.02609 13.4261C3.7913 13.287 5.25217 13.0783 7.30435 12.8696C7.13043 13.8783 7.02609 14.9217 7.02609 16.0348C7.02609 17.1478 7.13043 18.1913 7.26957 19.1652C5.25217 18.9565 3.75652 18.7478 2.9913 18.6087C2.88696 17.7391 2.78261 16.8696 2.78261 16ZM9.14783 16C9.14783 14.8174 9.28696 13.7043 9.49565 12.6609C11.0957 12.5565 12.9043 12.4522 14.9565 12.4522V19.5478C12.9391 19.513 11.0957 19.4435 9.46087 19.3043C9.28696 18.2957 9.14783 17.1826 9.14783 16ZM17.2522 2.85217C18.1913 3.7913 20.5913 6.57391 21.9478 10.5391C20.487 10.4348 18.8522 10.3652 17.0435 10.3652V2.81739C17.113 2.81739 17.1826 2.85217 17.2522 2.85217ZM14.9565 2.81739V10.3652C13.1478 10.4 11.513 10.4348 10.0522 10.5391C11.3739 6.57391 13.8087 3.7913 14.713 2.85217C14.8174 2.85217 14.887 2.81739 14.9565 2.81739ZM17.0435 19.5478V12.4522C19.0609 12.487 20.9043 12.5565 22.5043 12.6609C22.713 13.7043 22.8522 14.8174 22.8522 16C22.8522 17.1826 22.7478 18.2957 22.5391 19.3391C20.9391 19.4435 19.0957 19.513 17.0435 19.5478ZM24.6609 12.8696C26.713 13.0783 28.1739 13.287 28.9391 13.4261C29.113 14.2609 29.2174 15.1304 29.2174 16C29.2174 16.8696 29.113 17.7391 28.9739 18.5739C28.2087 18.713 26.7478 18.9217 24.6957 19.1304C24.8696 18.1217 24.9391 17.0783 24.9391 15.9652C24.9391 14.9217 24.8348 13.8435 24.6609 12.8696ZM28.313 11.2C27.3391 11.0609 25.9478 10.887 24.1739 10.713C23.3391 7.72174 21.8783 5.32174 20.6609 3.61739C24.1739 4.93913 26.9565 7.72174 28.313 11.2ZM11.3391 3.61739C10.087 5.28696 8.66087 7.68696 7.82609 10.6783C6.08696 10.8174 4.69565 11.0261 3.68696 11.1652C5.04348 7.72174 7.86087 4.93913 11.3391 3.61739ZM3.68696 20.8C4.66087 20.9391 6.05217 21.113 7.7913 21.287C8.62609 24.2783 10.0174 26.6783 11.2696 28.3478C7.79131 26.9913 5.04348 24.2435 3.68696 20.8ZM20.7304 28.3478C21.9826 26.6783 23.3739 24.313 24.2087 21.3217C25.9478 21.1826 27.3391 20.9739 28.313 20.8348C26.9565 24.2435 24.2087 26.9913 20.7304 28.3478Z" fill="#475569"/>
</g>
<defs>
<clipPath id="clip0_9_33">
<rect width="32" height="32" fill="white"/>
</clipPath>
</defs>
</svg>
